<?xml version="1.0" encoding="UTF-8" standalone="no"?>
<svg
   width="169.12199"
   zoomAndPan="magnify"
   viewBox="0 0 126.77384 29.094"
   height="38.792"
   preserveAspectRatio="xMidYMid"
   version="1.0"
   id="svg31"
   xmlns="http://www.w3.org/2000/svg"
   xmlns:svg="http://www.w3.org/2000/svg">
  <defs
     id="defs1" />
  <g
     fill="#ffffff"
     fill-opacity="1"
     id="g4"
     transform="translate(-10.578094,-0.09936928)">
    <g
       transform="translate(9.148661,22.94532)"
       id="g3">
      <g
         id="g2">
        <path
           d="m 6.8125,-16.03125 c -0.898438,0 -1.578125,0.226562 -2.046875,0.671875 -0.46875,0.449219 -0.703125,1.0625 -0.703125,1.84375 0,0.648437 0.21875,1.226563 0.65625,1.734375 0.4375,0.511719 1.097656,0.917969 1.984375,1.21875 2.15625,0.71875 3.648437,1.523438 4.484375,2.40625 0.84375,0.875 1.265625,1.996094 1.265625,3.359375 0,1.667969 -0.511719,2.921875 -1.53125,3.765625 C 9.910156,-0.1875 8.414062,0.234375 6.4375,0.234375 c -1.6875,0 -3.242188,-0.363281 -4.65625,-1.09375 V -3.4375 c 1.414062,0.980469 2.882812,1.46875 4.40625,1.46875 2.382812,0 3.578125,-0.941406 3.578125,-2.828125 C 9.765625,-5.515625 9.53125,-6.125 9.0625,-6.625 8.59375,-7.132812 7.804688,-7.59375 6.703125,-8 c -1.875,-0.632812 -3.230469,-1.394531 -4.0625,-2.28125 -0.835937,-0.882812 -1.25,-1.960938 -1.25,-3.234375 0,-1.4375 0.457031,-2.570313 1.375,-3.40625 0.925781,-0.84375 2.1875,-1.265625 3.78125,-1.265625 1.863281,0 3.585937,0.328125 5.171875,0.984375 v 2.53125 C 10.082031,-15.578125 8.445312,-16.03125 6.8125,-16.03125 Z m 0,0"
           id="path1" />
      </g>
    </g>
  </g>
  <g
     fill="#ffffff"
     fill-opacity="1"
     id="g7"
     transform="translate(-10.578094,-0.09936928)">
    <g
       transform="translate(23.020295,22.94532)"
       id="g6">
      <g
         id="g5">
        <path
           d="m 2.640625,0 v -12.765625 h 2.6875 V 0 Z m 0,-15.71875 v -2.71875 h 2.6875 v 2.71875 z m 0,0"
           id="path4" />
      </g>
    </g>
  </g>
  <g
     fill="#ffffff"
     fill-opacity="1"
     id="g10"
     transform="translate(-10.578094,-0.09936928)">
    <g
       transform="translate(30.988085,22.94532)"
       id="g9">
      <g
         id="g8">
        <path
           d="M 11.0625,-8.859375 V 0 H 8.515625 v -7.375 c 0,-1.476562 -0.136719,-2.460938 -0.40625,-2.953125 -0.273437,-0.488281 -0.792969,-0.734375 -1.5625,-0.734375 -0.460937,0 -0.945313,0.25 -1.453125,0.75 -0.5,0.492188 -0.75,0.976562 -0.75,1.453125 V 0 h -2.5625 v -12.765625 h 2.4375 l 0.046875,1.453125 h 0.0625 c 0.957031,-1.144531 2.023437,-1.71875 3.203125,-1.71875 0.71875,0 1.300781,0.152344 1.75,0.453125 0.445312,0.292969 0.84375,0.796875 1.1875,1.515625 h 0.04687 c 0.976563,-1.3125 2.144531,-1.96875 3.5,-1.96875 1.34375,0 2.296875,0.367188 2.859375,1.09375 0.570312,0.730469 0.859375,2.007812 0.859375,3.828125 V 0 h -2.51562 v -7.375 c 0,-1.476562 -0.140625,-2.460938 -0.421875,-2.953125 C 14.515625,-10.816406 14,-11.0625 13.25,-11.0625 c -0.480469,0 -0.964844,0.25 -1.453125,0.75 -0.492187,0.492188 -0.734375,0.976562 -0.734375,1.453125 z m 0,0"
           id="path7" />
      </g>
    </g>
  </g>
  <g
     fill="#ffffff"
     fill-opacity="1"
     id="g13"
     transform="translate(-10.578094,-0.09936928)">
    <g
       transform="translate(50.379574,22.94532)"
       id="g12">
      <g
         id="g11">
        <path
           d="m 4.34375,-4.53125 c 0,0.75 0.3125,1.40625 0.9375,1.96875 0.632812,0.554688 1.382812,0.828125 2.25,0.828125 1,0 1.78125,-0.390625 2.34375,-1.171875 0.570312,-0.78125 0.859375,-1.941406 0.859375,-3.484375 0,-3.113281 -1.070313,-4.671875 -3.203125,-4.671875 -0.867188,0 -1.617188,0.289062 -2.25,0.859375 -0.625,0.5625 -0.9375,1.21875 -0.9375,1.96875 z m 8.984375,-1.859375 c 0,2.03125 -0.492187,3.648437 -1.46875,4.84375 -0.980469,1.1875 -2.214844,1.78125 -3.703125,1.78125 -1.4375,0 -2.695312,-0.523437 -3.765625,-1.578125 H 4.34375 v 6.75 H 1.78125 V -12.765625 H 4.171875 L 4.21875,-11.1875 h 0.046875 c 0.625,-0.6875 1.226563,-1.164062 1.8125,-1.4375 0.582031,-0.269531 1.273437,-0.40625 2.078125,-0.40625 1.550781,0 2.800781,0.585938 3.75,1.75 0.945312,1.167969 1.421875,2.796875 1.421875,4.890625 z m 0,0"
           id="path10" />
      </g>
    </g>
  </g>
  <g
     fill="#ffffff"
     fill-opacity="1"
     id="g16"
     transform="translate(-10.578094,-0.09936928)">
    <g
       transform="translate(64.731196,22.94532)"
       id="g15">
      <g
         id="g14">
        <path
           d="m 2.640625,0 v -18.4375 h 2.6875 V 0 Z m 0,0"
           id="path13" />
      </g>
    </g>
  </g>
  <g
     fill="#ffffff"
     fill-opacity="1"
     id="g19"
     transform="translate(-10.578094,-0.09936928)">
    <g
       transform="translate(72.698986,22.94532)"
       id="g18">
      <g
         id="g17">
        <path
           d="m 3.5,-7.5625 h 5.9375 c -0.054688,-2.363281 -0.964844,-3.546875 -2.734375,-3.546875 -0.980469,0 -1.730469,0.28125 -2.25,0.84375 C 3.929688,-9.710938 3.613281,-8.8125 3.5,-7.5625 Z m 0,1.890625 c 0.164062,2.65625 1.507812,3.984375 4.03125,3.984375 1.101562,0 2.296875,-0.253906 3.578125,-0.765625 v 2.171875 c -1.355469,0.34375 -2.625,0.515625 -3.8125,0.515625 -2.054687,0 -3.632813,-0.550781 -4.734375,-1.65625 C 1.457031,-2.535156 0.90625,-4.1875 0.90625,-6.375 c 0,-2.195312 0.492188,-3.851562 1.484375,-4.96875 1,-1.125 2.4375,-1.6875 4.3125,-1.6875 1.757813,0 3.078125,0.53125 3.953125,1.59375 0.882812,1.054688 1.328125,2.699219 1.328125,4.9375 0,0.21875 -0.02734,0.496094 -0.07813,0.828125 z m 0,0"
           id="path16" />
      </g>
    </g>
  </g>
  <g
     fill="#ffffff"
     fill-opacity="1"
     id="g25"
     transform="translate(-10.578094,-0.09936928)">
    <g
       transform="translate(92.522464,22.94532)"
       id="g24">
      <g
         id="g23">
        <path
           d="m 4.734375,-17.953125 v 7.875 H 4.78125 l 6.578125,-7.875 h 3.1875 L 7.171875,-9.34375 14.78125,0 h -3.1875 L 4.78125,-8.59375 H 4.734375 V 0 h -2.71875 v -17.953125 z m 0,0"
           id="path22" />
      </g>
    </g>
  </g>
  <g
     fill="#ffffff"
     fill-opacity="1"
     id="g28"
     transform="translate(-10.578094,-0.09936928)">
    <g
       transform="translate(108.09805,22.94532)"
       id="g27">
      <g
         id="g26">
        <path
           d="M 4.734375,-6.765625 V 0 H 2.015625 V -17.953125 H 6.9375 c 2.507812,0 4.363281,0.445313 5.5625,1.328125 1.207031,0.875 1.8125,2.199219 1.8125,3.96875 0,3.929688 -2.296875,5.890625 -6.890625,5.890625 z m 0,-2.109375 h 2.4375 c 1.457031,0 2.566406,-0.296875 3.328125,-0.890625 0.757812,-0.59375 1.140625,-1.472656 1.140625,-2.640625 0,-2.238281 -1.492187,-3.359375 -4.46875,-3.359375 h -2.4375 z m 0,0"
           id="path25" />
      </g>
    </g>
  </g>
  <g
     fill="#ffffff"
     fill-opacity="1"
     id="g31"
     transform="translate(-10.578094,-0.09936928)">
    <g
       transform="translate(123.19366,22.94532)"
       id="g30">
      <g
         id="g29">
        <path
           d="M 1.390625,-17.953125 H 14.1875 v 2.28125 H 9.140625 V 0 H 6.4375 V -15.671875 H 1.390625 Z m 0,0"
           id="path28" />
      </g>
    </g>
  </g>
</svg>
